<svg viewBox="0 0 172.13 76.83" xmlns="http://www.w3.org/2000/svg"><path d="m101.01 50.1 30.27-26.21 23.55 26.21z" fill="#dfe1e5"/><path d="m21.47 50.1 36.55-34.6 33.57 34.6z" fill="#dfe1e5" opacity=".61"/><path d="m159.65 50.16-28.64-32.58-33.85 29.36-38.75-39.42-45.83 42.22h-9.09l54.66-49.14 40.06 19.78 18.59-4.73 14.21-4.77 36.17 39.28z" fill="#3d4669" stroke="#3d4669" stroke-miterlimit="10"/><g fill="#bca161"><path d="m51.89 38.61h4.54v4.54h-4.54z"/><path d="m51.89 32.37h4.54v4.54h-4.54z"/><path d="m58.15 32.37h4.54v4.54h-4.54z"/><path d="m58.15 38.61h4.54v4.54h-4.54z"/><path d="m124.98 41.73h4.54v4.54h-4.54z"/><path d="m124.98 35.49h4.54v4.54h-4.54z"/><path d="m131.24 35.49h4.54v4.54h-4.54z"/><path d="m131.24 41.73h4.54v4.54h-4.54z"/></g><path d="m26.72 29.1v-17h7v11z" fill="#3d4669" stroke="#3d4669" stroke-miterlimit="10"/><path d="m59.22 2.6 39 21-1 21-38-38z" fill="#293354" opacity=".31" stroke="#3d4669" stroke-miterlimit="10"/><text fill="#231f20" font-family="Raleway-Light, Raleway" font-size="24" font-weight="300" letter-spacing=".08em" transform="matrix(1 0 0 .92 0 71.9)">REA<tspan letter-spacing=".05em" x="52.15" y="0">L</tspan><tspan letter-spacing=".08em" x="67.34" y="0"></tspan><tspan letter-spacing=".06em" x="75.41" y="0">E</tspan><tspan letter-spacing=".07em" x="91.63" y="0">S</tspan><tspan letter-spacing=".01em" x="107.93" y="0">TA</tspan><tspan letter-spacing=".08em" x="139.1" y="0">TE</tspan></text></svg>